<?xml version="1.0" encoding="iso-8859-1"?>
<!-- Uploaded to: SVG Repo, www.svgrepo.com, Generator: SVG Repo Mixer Tools -->
<svg height="100%" width="100%" version="1.1" xmlns="http://www.w3.org/2000/svg" xmlns:xlink="http://www.w3.org/1999/xlink" viewBox="0 -70 512 582" xml:space="preserve">
          <rect x="43" y="-170" width="434" height="682" fill="#000000" />
<g transform="translate(60, 10) scale(0.4)">
<path style="fill:#FFE53C;" d="M71.926,235.796c88-5.6,158.8-76.4,164.4-164c1.2-18.8-0.4-36.8-4.8-54c-1.6-6.4,5.2-12,11.2-9.2
	c63.2,29.2,106,94.4,101.6,169.6c-4.8,88.8-76.8,161.2-166,166c-74.8,4-140.4-38.8-169.6-101.6c-2.8-6,2.8-12.8,9.2-11.2
	C35.526,235.396,53.526,236.996,71.926,235.796z"/>
<path style="fill:#C39215;" d="M168.726,352.596c-72,0-136.8-40.8-167.2-106.4c-2.8-5.6-1.6-12,2.4-16.8s10-6.8,16-5.6
	c17.2,4,34.4,5.2,51.6,4l0,0c84-5.2,151.6-72.8,156.8-156.4c1.2-18-0.4-35.2-4.4-51.6c-1.6-6,0.4-12.4,5.2-16
	c4.8-4,11.2-4.8,16.8-2.4c68.8,32,110.8,101.6,106.4,177.2c-4.8,92.4-81.2,168.4-173.6,173.6
	C175.526,352.196,171.926,352.596,168.726,352.596z M16.326,239.396c28.8,62.4,92.4,100.4,161.6,96.8c84.4-4.4,154-74,158.4-158.4
	c4-69.2-34-132.8-96.8-162c4.4,18,6,36.8,4.8,56.4c-6,92-79.6,165.6-172,171.6l0,0C53.926,244.996,34.726,243.396,16.326,239.396z"
	/>
<path style="fill:#F8D133;" d="M244.726,25.796c31.6,30.8,51.2,74,51.2,122c0,94-76.4,170.4-170.4,170.4c-19.2,0-38-3.2-55.2-9.2
	c27.2,18.8,60.4,29.6,96,29.6c94,0,170.4-76.4,170.4-170.4c0-66.8-38.4-124.4-94-152.4
	C235.926,12.196,237.526,18.996,244.726,25.796z"/>
<path style="fill:#FFE53C;" d="M231.126,284.196c28.8-19.6,50-49.2,58-84"/>
<path style="fill:#C39215;" d="M231.126,292.196c-2.4,0-5.2-1.2-6.8-3.6c-2.4-3.6-1.6-8.8,2-11.2c28-18.8,47.2-47.2,54.8-79.2
	c0.8-4.4,5.2-6.8,9.6-6s6.8,5.2,6,9.6c-8.4,36-30,67.6-61.2,88.8C234.326,291.796,232.726,292.196,231.126,292.196z"/>
<path style="fill:#FFE53C;" d="M192.726,302.596c2.8-0.8,5.2-1.6,8-2.8"/>
<path style="fill:#C39215;" d="M192.726,310.596c-3.6,0-6.8-2.4-7.6-6c-1.2-4.4,1.2-8.8,5.6-10c2.8-0.8,4.8-1.6,7.2-2.4
	c4-1.6,8.8,0,10.4,4.4c1.6,4,0,8.8-4.4,10.4c-2.8,1.2-5.6,2-8.8,3.2C194.326,310.596,193.526,310.596,192.726,310.596z"/>
</g>
<path style="fill:#FFC552;" d="M43.281,512H476.95V398.961l-28.93-36.03l-114.148,18.582l-96.587-18.582l-76.098,18.582l-54.879-18.582l-63.026,36.03L43.281,512z"/>
<path style="fill:#70B1CC;" d="M476.951,398.961c-27.412-13.165-59.322-13.165-86.734,0l0,0c-27.412,13.165-59.322,13.165-86.734,0l0,0c-27.412-13.165-59.322-13.165-86.734,0l0,0c-27.412,13.165-59.322,13.165-86.734,0l0,0c-27.412-13.165-59.322-13.165-86.734,0V342.98l42.198-37.123l68.39,19.346l50.075-1.276l56.171-18.069l49.611,6.174l38.781,21.075l67.318-32.971l46.83,11.896l14.295,30.95v55.982H476.951z"/>
<path style="fill:#7EC8E6;" d="M476.951,342.98c-27.412-13.165-59.322-13.165-86.734,0l0,0c-27.412,13.165-59.322,13.165-86.734,0l0,0c-27.412-13.165-59.322-13.165-86.734,0l0,0c-27.412,13.165-59.322,13.165-86.734,0l0,0c-27.412-13.165-59.322-13.165-86.734,0V287l42.198-38.217l91.806,18.293l82.831-21.22l94.245,25.052l87.074-25.052l35.516,41.144L476.951,342.98z"/>
<g>
	<path style="fill:#8CDEFF;" d="M444.368,88.209c-5.579,0-10.83,1.405-15.421,3.876c0.509-3.059,0.778-6.199,0.778-9.403c0-31.412-25.464-56.875-56.875-56.875c-24.502,0-45.386,15.495-53.387,37.22c-3.318-1.427-6.973-2.22-10.813-2.22c-15.133,0-27.402,12.269-27.402,27.402c0,0.045,0.003,0.089,0.003,0.134c-0.951-0.083-1.91-0.134-2.882-0.134c-17.995,0-32.583,14.588-32.583,32.583s14.588,32.583,32.583,32.583h165.999c17.995,0,32.583-14.588,32.583-32.583S462.363,88.209,444.368,88.209z"/>
	<path style="fill:#8CDEFF;" d="M390.217,231.02L390.217,231.02c-27.412,13.165-59.321,13.165-86.733,0l0,0c-27.413-13.167-59.322-13.167-86.734,0l0,0c-27.413,13.165-59.322,13.165-86.734,0l0,0c-27.413-13.167-59.322-13.167-86.734,0v55.981c27.412-13.167,59.321-13.167,86.734,0l0,0c27.412,13.165,59.321,13.165,86.734,0l0,0c27.412-13.167,59.321-13.167,86.734,0l0,0c27.412,13.165,59.321,13.165,86.733,0l0,0c27.413-13.167,59.322-13.167,86.734,0V231.02C449.538,217.853,417.629,217.853,390.217,231.02z"/>	
</g>
</svg>